<svg id="a216b944-c836-4a46-a28a-06ec728c6eed" data-name="Слой 1" xmlns="http://www.w3.org/2000/svg" viewBox="0 0 30.61 39.48"><path fill="#b56953" d="M23.19,3.42q.18-.3.15-.39t-.45-.09q-9.42,0-13.26.39A11,11,0,0,0,4,5.1,11.4,11.4,0,0,0,.87,10a.35.35,0,0,1-.24.12A.8.8,0,0,1,.27,10Q.09,9.9.15,9.84L2.55.12s.08-.06.24-.06q.6,0,.48.18a1.56,1.56,0,0,0-.06.48.94.94,0,0,0,.69,1,10.28,10.28,0,0,0,2.79.24h21.9a.48.48,0,0,1,.45.3.38.38,0,0,1,0,.48L6.45,37.8q-.24.3-.18.39t.42.09H21a9.44,9.44,0,0,0,6.12-1.89,8.75,8.75,0,0,0,3-5.43q.06-.12.36-.12t.3.12l-.84,8a.69.69,0,0,1-.15.39.46.46,0,0,1-.39.21q-8.94-.12-28.74-.12a.39.39,0,0,1-.36-.27.48.48,0,0,1,.06-.51Z" transform="translate(-0.13 -0.06)"/></svg>
