<svg id="be6ce9cd-b15c-4f5c-ac9d-bd08c6e43e30" data-name="Слой 1" xmlns="http://www.w3.org/2000/svg" viewBox="0 0 71.17 23.39"><path d="M12.74,4.1c.06-.1.09-.17.08-.2s-.09,0-.24,0q-5.64,0-7.7.17A5.54,5.54,0,0,0,2,4.86,5.81,5.81,0,0,0,.5,7.37s0,.06-.12.06a.41.41,0,0,1-.19,0C.12,7.35.1,7.32.12,7.3L1.39,2.36s0,0,.13,0,.29,0,.25.09a.88.88,0,0,0,0,.26.49.49,0,0,0,.36.5,5.25,5.25,0,0,0,1.48.13H15.15a.24.24,0,0,1,.23.16.19.19,0,0,1,0,.25L3,22.27l-.1.19s.09.06.25.06h8.09a5.09,5.09,0,0,0,3.23-.89,4.42,4.42,0,0,0,1.46-2.79s.08-.06.19-.06.16,0,.16.06l-.45,4a.35.35,0,0,1-.07.2.25.25,0,0,1-.21.11q-4.72-.06-15.15-.06A.22.22,0,0,1,.19,23a.23.23,0,0,1,0-.27Z" transform="translate(-0.11 -0.11)"/><path d="M32,21.35a.21.21,0,0,1,.18.11.17.17,0,0,1,0,.2A7,7,0,0,1,27.6,23.5a6,6,0,0,1-3.23-.85,5.42,5.42,0,0,1-2-2.24,6.61,6.61,0,0,1-.69-3,6.72,6.72,0,0,1,6.82-6.81,3.88,3.88,0,0,1,2.66.84,2.9,2.9,0,0,1,.95,2.3,1.27,1.27,0,0,1-.08.55.29.29,0,0,1-.3.18l-7.79.06a8.69,8.69,0,0,0-.16,1.65,7.1,7.1,0,0,0,1.33,4.48,4.37,4.37,0,0,0,3.68,1.73,5.5,5.5,0,0,0,3.26-1ZM25.21,12A4,4,0,0,0,24,14.09l5.9-.13a2.79,2.79,0,0,0-.68-2,2.42,2.42,0,0,0-1.83-.72A3.22,3.22,0,0,0,25.21,12Z" transform="translate(-0.11 -0.11)"/><path d="M49.37.6c.68.33,1,.72,1,1.19a.92.92,0,0,1-.34.74,1.19,1.19,0,0,1-.77.27,1.15,1.15,0,0,1-.67-.19A2.62,2.62,0,0,1,48,2a3.46,3.46,0,0,0-1-1A2.66,2.66,0,0,0,45.61.65a3.25,3.25,0,0,0-2.92,2.12A14.76,14.76,0,0,0,41.61,9.2v2c1,0,2.33-.12,4.06-.31.07,0,.12.07.16.22a2.12,2.12,0,0,1,.06.54,1.63,1.63,0,0,1-.09.52c-.06.18-.14.26-.22.24a19,19,0,0,0-4-.51v8.62A3.35,3.35,0,0,0,41.84,22a1.16,1.16,0,0,0,.85.6,9,9,0,0,0,2,.16c.06,0,.1.06.1.19s0,.19-.1.19l-2,0c-.44,0-1.12,0-2,0l-1.77,0c-.3,0-.72,0-1.27,0-.06,0-.09-.06-.09-.19s0-.19.09-.19a4.36,4.36,0,0,0,1.4-.17,1.07,1.07,0,0,0,.61-.62,4,4,0,0,0,.18-1.4V13.42a3.11,3.11,0,0,0-.16-1.16.85.85,0,0,0-.62-.44,7.73,7.73,0,0,0-1.54-.11q-.09,0-.09-.21c0-.13,0-.2.09-.2a3.51,3.51,0,0,0,1.76-.3,1.31,1.31,0,0,0,.49-1.13c.11-3.42.74-5.91,1.89-7.45A6,6,0,0,1,46.72.11,6.15,6.15,0,0,1,49.37.6Z" transform="translate(-0.11 -0.11)"/><path d="M50.4,22.93c0-.13,0-.19.06-.19a3.71,3.71,0,0,0,1.28-.17,1,1,0,0,0,.59-.64,4.31,4.31,0,0,0,.16-1.38V14.63A4.11,4.11,0,0,0,52.25,13a.83.83,0,0,0-.81-.51,3.32,3.32,0,0,0-1.42.44h0c-.08,0-.14-.05-.19-.15s0-.18,0-.23L54,10.63l.12,0a.3.3,0,0,1,.16.08.24.24,0,0,1,.1.17c0,.15,0,.57,0,1.27s0,1.52,0,2.47v6a4.68,4.68,0,0,0,.16,1.4,1.06,1.06,0,0,0,.57.62,3.64,3.64,0,0,0,1.27.17c.06,0,.1.06.1.19s0,.19-.1.19q-.73,0-1.17,0l-1.71,0-1.72,0q-.44,0-1.2,0S50.4,23.06,50.4,22.93ZM52.09,6.54a1.3,1.3,0,0,1-.36-1,1.3,1.3,0,0,1,.36-1,1.4,1.4,0,0,1,1-.35,1.22,1.22,0,0,1,1.33,1.33,1.22,1.22,0,0,1-1.33,1.33A1.4,1.4,0,0,1,52.09,6.54Z" transform="translate(-0.11 -0.11)"/><path d="M70.65,11a1.08,1.08,0,0,1,.63.92.93.93,0,0,1-1,1,.94.94,0,0,1-.49-.11,3,3,0,0,1-.49-.33,2.34,2.34,0,0,0-.54-.38,1.28,1.28,0,0,0-.61-.13,1.53,1.53,0,0,0-.87.33,12.09,12.09,0,0,0-1.44,1.48v6.81A3.09,3.09,0,0,0,66,22a1.36,1.36,0,0,0,.87.62,8.46,8.46,0,0,0,2,.17c.08,0,.12.06.12.19s0,.19-.12.19q-1,0-1.62,0l-2.35,0-1.74,0c-.27,0-.66,0-1.14,0-.06,0-.1-.06-.1-.19s0-.19.1-.19a3.64,3.64,0,0,0,1.27-.17,1,1,0,0,0,.55-.62,4.82,4.82,0,0,0,.14-1.4V14.28a3.54,3.54,0,0,0-.25-1.56.9.9,0,0,0-.86-.47,5.82,5.82,0,0,0-1.71.47h-.06c-.09,0-.14,0-.17-.14a.15.15,0,0,1,.07-.21l3.68-1.74a.47.47,0,0,1,.19,0c.19,0,.39.24.6.73a4.76,4.76,0,0,1,.32,1.87v0a14.24,14.24,0,0,1,2.06-2.08A2.34,2.34,0,0,1,70.65,11Z" transform="translate(-0.11 -0.11)"/></svg>